<?xml version="1.0" encoding="UTF-8"?> <svg xmlns="http://www.w3.org/2000/svg" width="862" height="256" viewBox="0 0 862 256" fill="none"> <mask id="mask0_1379_4" style="mask-type:luminance" maskUnits="userSpaceOnUse" x="0" y="0" width="862" height="256"> <path d="M0 0.0626536H861.333V255.272H0V0.0626536Z" fill="white"></path> </mask> <g mask="url(#mask0_1379_4)"> <path d="M829.432 255.271H31.9011C14.3557 255.271 0 240.916 0 223.369V31.9626C0 14.416 14.3557 0.0612965 31.9011 0.0612965H829.432C846.977 0.0612965 861.333 14.416 861.333 31.9626V223.369C861.333 240.916 846.977 255.271 829.432 255.271Z" fill="#100F0D"></path> <path d="M829.432 0.0626536H31.9011C14.3557 0.0626536 0 14.4173 0 31.964V223.371C0 240.917 14.3557 255.272 31.9011 255.272H829.432C846.977 255.272 861.333 240.917 861.333 223.371V31.964C861.333 14.4173 846.977 0.0626536 829.432 0.0626536ZM829.432 5.16666C844.209 5.16666 856.229 17.1867 856.229 31.964V223.371C856.229 238.148 844.209 250.168 829.432 250.168H31.9011C17.1245 250.168 5.10417 238.148 5.10417 223.371V31.964C5.10417 17.1867 17.1245 5.16666 31.9011 5.16666H829.432Z" fill="#A2A2A1"></path> <path d="M682.279 191.469H694.184V111.711H682.279V191.469ZM789.511 140.44L775.864 175.021H775.455L761.291 140.44H748.467L769.707 188.771L757.597 215.657H770.013L802.749 140.44H789.511ZM721.995 182.409C718.091 182.409 712.655 180.457 712.655 175.633C712.655 169.477 719.424 167.122 725.275 167.122C730.507 167.122 732.969 168.252 736.153 169.789C735.228 177.177 728.867 182.409 721.995 182.409ZM723.431 138.699C714.811 138.699 705.879 142.495 702.184 150.904L712.756 155.319C715.015 150.904 719.22 149.468 723.635 149.468C729.792 149.468 736.051 153.163 736.153 159.728V160.551C733.996 159.32 729.377 157.476 723.737 157.476C712.348 157.476 700.749 163.735 700.749 175.429C700.749 186.104 710.089 192.976 720.553 192.976C728.56 192.976 732.969 189.39 735.744 185.179H736.153V191.336H747.644V160.755C747.644 146.597 737.079 138.699 723.431 138.699ZM649.853 150.151H632.92V122.805H649.853C658.755 122.805 663.807 130.181 663.807 136.479C663.807 142.661 658.755 150.151 649.853 150.151ZM649.548 111.711H621.021V191.469H632.92V161.253H649.548C662.741 161.253 675.713 151.695 675.713 136.479C675.713 121.261 662.741 111.711 649.548 111.711ZM493.991 182.423C485.767 182.423 478.883 175.539 478.883 166.083C478.883 156.525 485.767 149.532 493.991 149.532C502.113 149.532 508.48 156.525 508.48 166.083C508.48 175.539 502.113 182.423 493.991 182.423ZM507.657 144.907H507.249C504.576 141.723 499.44 138.839 492.964 138.839C479.392 138.839 466.957 150.764 466.957 166.083C466.957 181.293 479.392 193.116 492.964 193.116C499.44 193.116 504.576 190.239 507.249 186.947H507.657V190.851C507.657 201.237 502.113 206.783 493.168 206.783C485.868 206.783 481.345 201.544 479.495 197.122L469.115 201.443C472.093 208.639 480.012 217.476 493.168 217.476C507.147 217.476 518.969 209.252 518.969 189.21V140.485H507.657V144.907ZM527.187 191.469H539.112V111.704H527.187V191.469ZM556.689 165.157C556.383 154.668 564.812 149.328 570.872 149.328C575.607 149.328 579.613 151.689 580.947 155.083L556.689 165.157ZM593.695 156.111C591.429 150.043 584.545 138.839 570.464 138.839C556.485 138.839 544.873 149.839 544.873 165.98C544.873 181.191 556.383 193.116 571.797 193.116C584.239 193.116 591.429 185.51 594.416 181.09L585.164 174.92C582.076 179.443 577.865 182.423 571.797 182.423C565.736 182.423 561.417 179.647 558.641 174.205L594.927 159.192L593.695 156.111ZM304.619 147.172V158.681H332.163C331.339 165.157 329.183 169.885 325.896 173.171C321.884 177.184 315.612 181.6 304.619 181.6C287.653 181.6 274.395 167.933 274.395 150.968C274.395 134.009 287.653 120.343 304.619 120.343C313.768 120.343 320.448 123.935 325.38 128.56L333.501 120.445C326.611 113.867 317.468 108.827 304.619 108.827C281.388 108.827 261.859 127.744 261.859 150.968C261.859 174.205 281.388 193.116 304.619 193.116C317.156 193.116 326.611 189 334.012 181.293C341.617 173.688 343.985 163.002 343.985 154.363C343.985 151.689 343.78 149.227 343.365 147.172H304.619ZM375.299 182.423C367.081 182.423 359.987 175.64 359.987 165.98C359.987 156.212 367.081 149.532 375.299 149.532C383.523 149.532 390.617 156.212 390.617 165.98C390.617 175.64 383.523 182.423 375.299 182.423ZM375.299 138.839C360.292 138.839 348.061 150.253 348.061 165.98C348.061 181.6 360.292 193.116 375.299 193.116C390.305 193.116 402.543 181.6 402.543 165.98C402.543 150.253 390.305 138.839 375.299 138.839ZM434.724 182.423C426.5 182.423 419.405 175.64 419.405 165.98C419.405 156.212 426.5 149.532 434.724 149.532C442.949 149.532 450.037 156.212 450.037 165.98C450.037 175.64 442.949 182.423 434.724 182.423ZM434.724 138.839C419.719 138.839 407.487 150.253 407.487 165.98C407.487 181.6 419.719 193.116 434.724 193.116C449.731 193.116 461.961 181.6 461.961 165.98C461.961 150.253 449.731 138.839 434.724 138.839Z" fill="white"></path> <path d="M132.181 123.992L64.2505 196.09C64.2568 196.102 64.2568 196.121 64.2631 196.133C66.3495 203.963 73.4953 209.724 81.9812 209.724C85.3755 209.724 88.5588 208.805 91.2901 207.197L91.5068 207.069L167.968 162.951L132.181 123.992Z" fill="#EB3131"></path> <path d="M200.901 111.716L200.839 111.671L167.827 92.536L130.636 125.631L167.96 162.943L200.793 144C206.548 140.885 210.46 134.819 210.46 127.825C210.46 120.871 206.605 114.835 200.901 111.716Z" fill="#F6B60B"></path> <path d="M64.2489 59.252C63.8407 60.7573 63.624 62.34 63.624 63.9733V191.375C63.624 193.008 63.8407 194.59 64.2557 196.09L134.515 125.836L64.2489 59.252Z" fill="#5778C5"></path> <path d="M132.682 127.673L167.837 92.524L91.4661 48.2453C88.6907 46.58 85.4495 45.6227 81.9849 45.6227C73.4989 45.6227 66.3407 51.3973 64.2541 59.232C64.2541 59.2387 64.2479 59.2453 64.2479 59.252L132.682 127.673Z" fill="#3BAD49"></path> </g> <mask id="mask1_1379_4" style="mask-type:luminance" maskUnits="userSpaceOnUse" x="0" y="0" width="862" height="256"> <path d="M0 0.0613189H861.333V255.272H0V0.0613189Z" fill="white"></path> </mask> <g mask="url(#mask1_1379_4)"> <path d="M274.78 82.024C271.616 80.212 269.127 77.7147 267.315 74.5307C265.5 71.348 264.595 67.8333 264.595 63.9827C264.595 60.136 265.5 56.62 267.315 53.4387C269.127 50.256 271.616 47.7573 274.78 45.944C277.944 44.1307 281.449 43.224 285.299 43.224C291.257 43.224 296.159 45.388 300.008 49.7187L295.735 53.8813C294.365 52.2533 292.839 51.0333 291.155 50.2187C289.471 49.404 287.537 48.996 285.355 48.996C282.653 48.996 280.192 49.616 277.972 50.856C275.752 52.0973 273.993 53.8533 272.699 56.1293C271.403 58.4053 270.756 61.024 270.756 63.9827C270.756 66.944 271.403 69.5627 272.699 71.8387C273.993 74.1133 275.752 75.8733 277.972 77.1107C280.192 78.352 282.653 78.972 285.355 78.972C289.869 78.972 293.661 77.1027 296.733 73.3653L301.119 77.584C299.195 79.8413 296.88 81.6 294.18 82.8573C291.479 84.1133 288.519 84.744 285.299 84.744C281.449 84.744 277.944 83.8373 274.78 82.024Z" fill="white"></path> <path d="M307.945 44.112H314.052V63.3733H314.384L330.205 44.112H337.865V44.4453L321.101 64.316L338.753 83.5227V83.856H330.76L314.384 65.6493H314.052V83.856H307.945V44.112Z" fill="white"></path> <path d="M367.172 67.9813L362.732 55.796L361.233 51.2453H360.9L359.401 55.796L354.961 67.9813H367.172ZM357.569 44.112H364.508L379.551 83.856H372.835L369.171 73.6426H352.963L349.299 83.856H342.583L357.569 44.112Z" fill="white"></path> <path d="M402.532 66.1493C400.052 68.332 396.999 69.424 393.373 69.424C390.967 69.424 388.793 68.9346 386.851 67.952C384.908 66.9733 383.381 65.5573 382.271 63.7067C381.16 61.856 380.605 59.6733 380.605 57.1573V44.112H386.767V56.1026C386.767 58.508 387.471 60.368 388.877 61.68C390.283 62.9933 392.169 63.652 394.539 63.652C397.759 63.652 400.423 62.3933 402.532 59.876V44.112H408.583V83.856H402.532V66.1493Z" fill="white"></path> <path d="M438.555 67.9813L434.115 55.796L432.616 51.2453H432.283L430.784 55.796L426.344 67.9813H438.555ZM428.952 44.112H435.891L450.933 83.856H444.217L440.553 73.6426H424.345L420.681 83.856H413.965L428.952 44.112Z" fill="white"></path> <path d="M461.259 49.8853H450.101V44.112H478.467V49.8853H467.365V83.856H461.259V49.8853Z" fill="white"></path> <path d="M499.78 78.1387C501.224 78.1387 502.5 77.8053 503.611 77.14C504.721 76.4733 505.572 75.5947 506.164 74.5027C506.756 73.412 507.052 72.2546 507.052 71.0333C507.052 69.8133 506.756 68.6573 506.164 67.564C505.572 66.4733 504.721 65.5853 503.611 64.9C502.5 64.2146 501.224 63.8733 499.78 63.8733H490.9V78.1387H499.78ZM484.793 44.112H490.9V58.2666H499.336C501.816 58.2666 504.111 58.7746 506.22 59.7933C508.329 60.812 510.012 62.2906 511.271 64.2333C512.529 66.176 513.157 68.4426 513.157 71.0333C513.157 73.624 512.529 75.8906 511.271 77.8333C510.012 79.776 508.329 81.2666 506.22 82.3013C504.111 83.3373 501.816 83.856 499.336 83.856H484.793V44.112Z" fill="white"></path> <path d="M532.808 44.112H538.857V66.0933L538.525 73.7533H538.857L556.676 44.112H563.615V83.856H557.564V61.3186L557.897 53.66H557.564L539.468 83.856H532.808V44.112Z" fill="white"></path> <path d="M575.576 82.1907C573.079 80.488 571.367 77.972 570.441 74.6413L576.047 72.4213C576.528 74.4933 577.463 76.1213 578.851 77.3067C580.239 78.4907 581.877 79.0827 583.764 79.0827C585.799 79.0827 587.539 78.444 588.981 77.1667C590.425 75.8907 591.147 74.3093 591.147 72.4213C591.147 71.2 590.793 70.0813 590.092 69.0627C589.388 68.0453 588.427 67.2413 587.205 66.6493C585.984 66.0573 584.652 65.7613 583.209 65.7613H579.933V60.4307H582.876C584.875 60.4307 586.539 59.8853 587.872 58.7933C589.204 57.7027 589.869 56.232 589.869 54.3813C589.869 52.7533 589.249 51.4027 588.009 50.328C586.769 49.256 585.224 48.7187 583.376 48.7187C581.711 48.7187 580.303 49.2187 579.156 50.2187C578.008 51.216 577.213 52.4013 576.769 53.7693L571.384 51.5493C572.161 49.368 573.577 47.4347 575.632 45.7493C577.685 44.0653 580.284 43.224 583.431 43.224C585.835 43.224 587.973 43.696 589.841 44.64C591.711 45.5827 593.172 46.8787 594.227 48.5253C595.281 50.172 595.809 52.032 595.809 54.1027C595.809 57.952 594.124 60.8013 590.757 62.652V62.9853C592.645 63.836 594.18 65.076 595.365 66.704C596.548 68.332 597.141 70.312 597.141 72.644C597.141 74.9013 596.557 76.9547 595.392 78.8053C594.227 80.6547 592.625 82.1067 590.592 83.1613C588.555 84.216 586.279 84.744 583.764 84.744C580.803 84.744 578.073 83.892 575.576 82.1907Z" fill="white"></path> </g> </svg> 